' Generated by UML Generator
' Encoded: pLXHZzis37xFhn1mByukBlOST45lkmqBi0xRfTlBi0V5Ld92RTadoTTsNVlRIqgsHJboahxrnR59YgH8wYELLyPoRRkwMfYtKhLSyveL5JVcpbejzvqLsw9HE_cVODyl7cKfM25rKOd5macndvgwhSJx1r78Lh2F2yPoq-tzfrcpEwtvXz-aiIyzQOC2EJnkeuMPuhLOinsOLCSLCq8_mmkibyekKPgNPI-ftS-Q-S_bcksRfX9SeLJ1gwAhk1LlP2sofLiUqRVgg4KfXR86sS6xmDX42tv-wcHR0nd5V-NcSIViI--c4pGWAR83BsoZlRVhE2GeT1Is3qXib8H4ZlQt2dbP8AnPS6x50jtC-1-sVMXqpUsTyVwYRV-61i6dtPYdf0YwJUALaFaq544GSnNmcMOJlvywhgoq7zQiRBfzXK7vt2a9M_iBdcQiYQ1dKX1J1Ij6bYzxP__iXT33qGuoK0g9Wp6a_SvzXOJj6gBXAPW2cUT6bYWXm8tApAGchaJRf2AQgfQWWSQpxUnhhlXHwFvCMIX6L0K_BbvQy5A0abt1bH8QIM3-RUB8_GXaLsDDAnH-36S7txqgqrNMp5Oc-48h1zKyH8VGAUcK0e4n2Em7PdKdI6h3bhBbM5v0p4A4SpqwPlu0ISeQl9_IZU2wU4nJ7_pEfanlPKeT8MQMaJA_xsHLxgneVQP5wwtRUt7WO9kS-w6A40ryi39ICsFkNtEfNCvlFsBIPV69rK3Ak4Oyz6duvzz1txYC0F3DvFZTH72A10rwCLTRPSNH5SyDS7HJTeMLZQ9hB-CDIea19bCWUMCb-jFRjXmT6QJUm9UJyJdnq6d5BnMFIka0voxKqfKzesl_RYnDrctPl5DJ6gR3XOFq2pFIXaZvipgiWOfmAJVmy5cFJ_zrtIg51g5fW0u8JcOn41Yb24Yqg9jdCS-7JI6DDgqXqXDOFzi6GVHI0qHBSRCrFMNCEWcSwO6NfYxEnIakEtz3SPw0TiHCbN5iODVNIUpnI8tBAAmSU-dGD6SwvaDKnzbaFkd9VN4GzT0l9F9IMlksWuivPEVXcng0BWu9eKRIJ9Wk3rBNfo6PdLucc8Uex9iajEwA0byFz6V7qA0ZYvPVcZh31hhskHbJwkMsgXJlfnM4u7ETf6zUgOEIsaSlJcOdEg1Si_Jak9wJdM1EKXGJthG0eQBCpiXS68fJGzIOUtzSeci7m72KQiJb3JGF9TuHwiPD7pxvLCarLv2peFzjN3xebWR4my345brelkBuEXLfxfbBndMWEGEA8TDWssVugbaaBuKfj6mdWqnEXv2Sp2j1mfS4flYoeHLBc5cnqSYAdPXOZkgJIzFoNzUixtl5qowPRDBtmOkKHt7NdkteS2fca2Uw6f4675LrrCa3vpGOn9jKrVl1U-RQDMcWkzG1XdAB_yh8y_ytmpWMSveyJpDUlDXCBl-dV7BT8xVc4mwv_mLpxi8MyRuxmoDkpgo9wUY3YoFP9l69x85AuNUlZRHZOZi2QXhKY84BdDg8wenHG7DOC77CqKQtNWbLTdNr1G
' URL: https://www.plantuml.com/plantuml/dpng/pLZDZjis4BxxAGZiHMwje6SZDRBjjkW2JT7QQIz53xGqzXAHI2r9EKctUVToFB9696Z8kULYhxxvvaSpmnbwtpWlhU_RPk7UAzr9ArjHDTAvU--jslSU7YkZT-fV4DyjdbGDebAsQc2nEBF4ZwRj6lYuXKfr85uMGfIktzEZMujxQ-MdNvNphmdQ8A4C7zz6YeMMBQp5BhZKnvLmO4_XZw2lj5yYMzRrmBJu5RZqk5oBlJ4DI8siIZPLtqWFxrGBnVAi7k6F-cYXLg2zGp57nu9DfF3JSw-wDi18_qMwfnturnJccUW24ug3hBon5EqwJWcIZk3fWPscAL6Z_qUDieA1jU3WLe9nToL-Vks3iQtqzuxYHT_q5peCCUt6EcKf63QRpN4-Nvg0QTG1N4rozjnBxPN_j1QrwVSD8DPh5Lxjp_3fnfvWEqb3f0PMOgA-78BzOo1XX4GR1CX2a9mHzbkm7x-kcrXuPbU1SpAgHWQ4C1ftfJHn9tgJosYkMzZ2D9zTxzzABOzWXpFbfSTyu9T3m8AimGQaabg3HIYuVvyvSZy4U8Doqu76XxLW0PboVUFTjSx4MFWboCmsEeI8sbxhG1YJ8BuNtlR0fPsyKd6fs1aiECEb7GDplmScYpZw57SWRVMKHxVqPYoSUadHSSHS5UJSxtlLr3iF7OBuJTxz0nnat_2vvox2QK39AhXdkFPlfTBY1OalM7HLVHPjW0ffZ-vIXh__6UonscG0toN7xouQfmXOwSCpzfw7K0-4WiIQkg-yCdggEpzla0MNCPaRadTUjJ3wzlBecFKkF9qvL1CQdHv-RcJKIWVPEEwb6tT6t_rbF4nJNviFcZ4knpaTattXHemoHJPPHzPKSXS-gEfSoTktLMuQ46-m4P9JU4m4PYaQ91PQSuACd4StOiKopJJ9Rbo3I9rPW4X9bgqR4Afwd3X7WpSg7OkpSvdYvUQCXIuHvjeuTh0R-YIAcD6eZLYJT-bbQLxPcDkeZulaVZB0H9fseJSxXRASrM7jeBAqK6-_fWlG_2M1UoGlh8m-ADjoIjACNxzsy5Ic9UcLRw9xXvs_XhAD8bAVktNo2_JToNY8U8-wXe_SGJnyRcFIyieSbEnx37IkGdH1kKKrFgupt7ZcvAbOSDDjfOUwo7FcByNPInJNdevBzBF3GnUL6kVo9YmF3HycwAPOZiLd8_Fh93Fqly8V7r5UXZHZg8b7XBxa-28_Bxr-J6yTclcXo9L6trJXc-uYPGskigfBBZBbz19IydrbO71BO8dd7Qr4nirAZ4vM0b8Noz5yLZNF_x9b_J0OJhTaTaa_S1IvY8Owp6rqMTTN9W_3J4zl5F4cPqcQ38uct_MOLfuOCmjqbpd0s6xnlpBAyh_DCEuJYIdBlE3LgytqvrpqAuwLSDV4icyIMLulqSdZ60DbWuETnaGeizZjr1CF4Kx4HC2coGX-f8xUWAxxjlaV
' Generated on: 2025-12-15T22:06:59.564629500

@startuml
skinparam classAttributeIconSize 0
hide circle

class ComplexRecipe {
  -subRecipes: ArrayList<Recipe>
  --
  +ComplexRecipe(name: String, servings: int)
  +addRecipe(recipe: Recipe): boolean
  +calculateTime(): int
  +calculateIngredients(): ArrayList<Ingredient>
  +calculateEquipment(): HashSet<String>
  +scale(factor: int): ComplexRecipe
  +getRecipes(): ArrayList<Recipe>
  -ingredientInList(ingredient: Ingredient, ingredients: ArrayList<Ingredient>): int
  +formatAsString(): String
  -getSubRecipesAsString(): String
  +getIngredientsAsString(): String
}

class Ingredient {
  -name: String
  -quantity: double
  -unit: Units
  --
  +Ingredient(name: String, quantity: double, unit: Units)
  +getQuantity(): double
  +getUnit(): Units
  +getName(): String
  +setQuantity(qty: double): void
  +equals(ingredient: Ingredient): boolean
  +toString(): String
  +scale(factor: int): Ingredient
}

class InputManager {
  -state: States
  -reader: Scanner
  -books: ArrayList<RecipeBook>
  -openBook: RecipeBook
  -results: ArrayList<Recipe>
  -input: String
  -openRecipe: Recipe
  -running: boolean = true
  --
  +InputManager()
  +getInput(): void
  -recipeBooksPage(): void
  -openBookPage(): void
  -searchPage(): void
  -searchResultsPage(): void
  -recipePage(): void
  -addRecipePage(): void
  -addRecipeBookPage(): void
  -buildStep(): Step
  -setDefaultRecipes(): void
  +getRunning(): boolean
}

class Main {
  +{static} main(args: String[]): void
}

class Recipe {
  #name: String
  #servings: int
  #rating: Integer
  #introduction: String
  #ingredients: ArrayList<Ingredient>
  #equipment: HashSet<String>
  #time: int
  #tags: HashSet<Tags>
  #recipeCompleteFlag: boolean = false
  --
  +Recipe(name: String, servings: int)
  +upVote(): void
  +downVote(): void
  +getRating(): int
  +setRating(rating: int): void
  +addStep(step: Step): boolean
  +addRecipe(recipe: Recipe): boolean
  +scale(factor: int): Recipe
  +addTag(tag: Tags): String
  +removeTag(tag: Tags): String
  +getTags(): HashSet<Tags>
  +getIngredients(): ArrayList<Ingredient>
  +getEquipment(): HashSet<String>
  +getTime(): int
  +setTime(time: int): void
  +setName(name: String): void
  +getName(): String
  +getIntroduction(): String
  +setIntroduction(introduction: String): void
  +getServings(): int
  +setServings(servings: int): void
  +formatAsSubRecipeString(): String
  +getRecipeComplete(): boolean
  +completeRecipe(): void
  +toSimpleString(): String
  +equals(comparedRecipe: Recipe): boolean
  +calculateTime(): int
  +calculateIngredients(): ArrayList<Ingredient>
  +calculateEquipment(): HashSet<String>
  +getIngredientsAsString(): String
  +getTimeAsString(): String
  +confirmRecipe(): void
  +formatAsString(): String
}

class RecipeBook {
  -title: String
  -recipes: ArrayList<Recipe>
  --
  +RecipeBook(title: String)
  +addRecipe(recipe: Recipe): String
  +upvoteRecipe(recipeIndex: int): void
  +downvoteRecipe(recipeIndex: int): void
  +searchName(name: String): ArrayList<Recipe>
  +searchIngredient(ingredient: String): ArrayList<Recipe>
  +searchTime(time: int): ArrayList<Recipe>
  +searchTag(tag: Tags): ArrayList<Recipe>
  +getTopRated(): ArrayList<Recipe>
  +getRecipes(): ArrayList<Recipe>
  +toString(): String
}

class SimpleRecipe {
  -steps: ArrayList<Step> = new ArrayList<>()
  --
  +SimpleRecipe(name: String, servings: int)
  +addStep(step: Step): boolean
  +calculateTime(): int
  +calculateIngredients(): ArrayList<Ingredient>
  +calculateEquipment(): HashSet<String>
  +scale(factor: int): SimpleRecipe
  +getSteps(): ArrayList<Step>
  +getIngredientsAsString(): String
  +getStepsAsString(): String
  +formatAsString(): String
  +formatAsSubRecipeString(): String
  +completeRecipe(): void
}

class Step {
  -ingredients: ArrayList<Ingredient>
  -description: String
  -time: int
  -equipment: String
  --
  +Step(ingredients: ArrayList<Ingredient>, description: String, time: int, equipment: String)
  +Step(description: String, equipment: String)
  +getIngredients(): ArrayList<Ingredient>
  +getDescripton(): String
  +getTime(): int
  +setDescription(description: String): void
  +setTime(time: int): void
  +addIngredient(ingredient: Ingredient): void
  +getEquipment(): String
  +setEquipment(equipment: String): void
  +scale(factor: int): Step
  +toString(): String
  +equals(comparedStep: Step): boolean
}

ComplexRecipe --|> Recipe
ComplexRecipe o-- Recipe
ComplexRecipe ..> Ingredient
InputManager o-- RecipeBook
InputManager *-- RecipeBook
InputManager o-- Recipe
InputManager *-- Recipe
InputManager ..> Step
Recipe o-- Ingredient
Recipe ..> Step
RecipeBook o-- Recipe
SimpleRecipe --|> Recipe
SimpleRecipe o-- Step
Step o-- Ingredient
@enduml